<svg xmlns="http://www.w3.org/2000/svg" xmlns:xlink="http://www.w3.org/1999/xlink" version="1.1" width="256" height="256" viewBox="0 0 256 256" xml:space="preserve">
<defs>
</defs>
<g style="stroke: none; stroke-width: 0; stroke-dasharray: none; stroke-linecap: butt; stroke-linejoin: miter; stroke-miterlimit: 10; fill: none; fill-rule: nonzero; opacity: 1;" transform="translate(1.4065934065934016 1.4065934065934016) scale(2.81 2.81)" >
	<path d="M 69.634 7.598 c -5.817 0 -5.419 5.8 -12.356 4.066 C 53.329 10.657 50.996 9.811 45 9.811 s -8.329 0.846 -12.278 1.853 c -6.937 1.734 -6.538 -4.066 -12.356 -4.066 C 10.955 7.598 1 24.49 1 35.612 c 0 6.04 2.412 7.617 5.894 13.721 c 4.397 7.705 3.999 21.93 9.365 21.93 c 3.443 0 5.155 -5.781 6.207 -13.23 h 0.003 c 0 0 -0.001 0 -0.001 0.001 c 4.596 5.514 1.942 9.857 6.356 16.367 c 3.414 5.325 9.381 8.002 16.176 8.002 s 12.762 -2.677 16.176 -8.002 c 4.414 -6.51 1.76 -10.853 6.356 -16.367 h 0.001 c 1.052 7.449 2.764 13.23 6.207 13.23 c 5.366 0 4.969 -14.225 9.365 -21.93 C 86.588 43.229 89 41.652 89 35.612 C 89 24.49 79.045 7.598 69.634 7.598 z" style="stroke: none; stroke-width: 1; stroke-dasharray: none; stroke-linecap: butt; stroke-linejoin: miter; stroke-miterlimit: 10; fill: rgb(242,207,169); fill-rule: nonzero; opacity: 1;" transform=" matrix(1 0 0 1 0 0) " stroke-linecap="round" />
	<path d="M 51.091 66.319 c 0 3.364 -2.727 6.091 -6.091 6.091 c -3.364 0 -6.091 -2.727 -6.091 -6.091 c 0 -3.364 2.727 -2.97 6.091 -2.97 C 48.364 63.349 51.091 62.955 51.091 66.319 z" style="stroke: none; stroke-width: 1; stroke-dasharray: none; stroke-linecap: butt; stroke-linejoin: miter; stroke-miterlimit: 10; fill: rgb(107,85,69); fill-rule: nonzero; opacity: 1;" transform=" matrix(1 0 0 1 0 0) " stroke-linecap="round" />
	<path d="M 45 73.41 c -3.91 0 -7.091 -3.181 -7.091 -7.091 c 0 -1.259 0.328 -2.195 1.001 -2.861 c 1.177 -1.162 3.013 -1.142 5.141 -1.116 c 0.618 0.006 1.279 0.006 1.897 0 c 2.13 -0.026 3.965 -0.046 5.14 1.116 c 0.674 0.666 1.002 1.603 1.002 2.861 C 52.091 70.229 48.91 73.41 45 73.41 z M 43.192 64.335 c -1.279 0 -2.396 0.071 -2.876 0.545 c -0.274 0.271 -0.408 0.742 -0.408 1.439 c 0 2.807 2.284 5.091 5.091 5.091 c 2.807 0 5.091 -2.284 5.091 -5.091 c 0 -0.697 -0.134 -1.168 -0.407 -1.439 c -0.583 -0.574 -2.102 -0.557 -3.711 -0.539 c -0.634 0.008 -1.311 0.008 -1.944 0 C 43.745 64.338 43.465 64.335 43.192 64.335 z" style="stroke: none; stroke-width: 1; stroke-dasharray: none; stroke-linecap: butt; stroke-linejoin: miter; stroke-miterlimit: 10; fill: rgb(0,0,0); fill-rule: nonzero; opacity: 1;" transform=" matrix(1 0 0 1 0 0) " stroke-linecap="round" />
	<path d="M 40.218 41.852 c -0.321 0 -0.637 -0.154 -0.83 -0.44 c -0.721 -1.068 -2.066 -1.731 -3.51 -1.731 s -2.789 0.663 -3.51 1.731 c -0.309 0.457 -0.93 0.58 -1.388 0.269 c -0.458 -0.309 -0.578 -0.93 -0.269 -1.388 c 1.104 -1.635 3.036 -2.612 5.167 -2.612 s 4.063 0.977 5.167 2.612 c 0.309 0.458 0.188 1.08 -0.269 1.388 C 40.605 41.797 40.41 41.852 40.218 41.852 z" style="stroke: none; stroke-width: 1; stroke-dasharray: none; stroke-linecap: butt; stroke-linejoin: miter; stroke-miterlimit: 10; fill: rgb(0,0,0); fill-rule: nonzero; opacity: 1;" transform=" matrix(1 0 0 1 0 0) " stroke-linecap="round" />
	<path d="M 49.782 41.852 c -0.192 0 -0.387 -0.055 -0.559 -0.171 c -0.458 -0.309 -0.578 -0.931 -0.27 -1.388 c 1.104 -1.636 3.035 -2.612 5.168 -2.612 c 2.131 0 4.063 0.976 5.168 2.612 c 0.309 0.458 0.188 1.079 -0.27 1.388 c -0.459 0.309 -1.079 0.188 -1.389 -0.269 c -0.721 -1.068 -2.065 -1.731 -3.51 -1.731 s -2.79 0.663 -3.51 1.73 C 50.419 41.698 50.104 41.852 49.782 41.852 z" style="stroke: none; stroke-width: 1; stroke-dasharray: none; stroke-linecap: butt; stroke-linejoin: miter; stroke-miterlimit: 10; fill: rgb(0,0,0); fill-rule: nonzero; opacity: 1;" transform=" matrix(1 0 0 1 0 0) " stroke-linecap="round" />
	<path d="M 73.74 72.263 c -6.313 0 -7.449 -14.055 -8.55 -27.647 c -0.625 -7.732 -1.334 -16.497 -3.047 -17.947 c -0.421 -0.357 -0.474 -0.988 -0.116 -1.41 c 0.354 -0.421 0.985 -0.475 1.409 -0.117 c 2.232 1.891 2.879 8.57 3.748 19.312 c 0.881 10.891 2.088 25.808 6.556 25.808 c 2.373 0 3.49 -4.771 4.674 -9.822 c 0.913 -3.898 1.948 -8.317 3.823 -11.603 c 0.922 -1.616 1.766 -2.914 2.511 -4.058 C 86.845 41.557 88 39.782 88 35.612 C 88 24.7 78.325 8.598 69.634 8.598 c -2.227 0 -3.34 0.945 -4.629 2.04 c -1.7 1.445 -3.63 3.081 -7.969 1.997 c -0.512 -0.13 -0.991 -0.257 -1.456 -0.379 c -3.181 -0.838 -5.479 -1.444 -10.58 -1.444 s -7.399 0.606 -10.58 1.444 c -0.464 0.123 -0.944 0.249 -1.451 0.378 c -4.344 1.084 -6.273 -0.551 -7.974 -1.995 c -1.289 -1.095 -2.402 -2.041 -4.629 -2.041 C 11.674 8.598 2 24.7 2 35.612 c 0 4.168 1.155 5.944 3.251 9.166 c 0.745 1.145 1.589 2.442 2.512 4.06 c 1.875 3.285 2.91 7.704 3.823 11.604 c 1.183 5.051 2.301 9.821 4.673 9.821 c 4.468 0 5.675 -14.917 6.556 -25.808 c 0.869 -10.742 1.515 -17.421 3.749 -19.312 c 0.42 -0.356 1.053 -0.304 1.409 0.117 c 0.357 0.421 0.305 1.052 -0.117 1.409 c -1.712 1.45 -2.421 10.214 -3.047 17.947 c -1.1 13.592 -2.237 27.647 -8.55 27.647 c -3.958 0 -5.192 -5.267 -6.621 -11.365 c -0.925 -3.95 -1.882 -8.035 -3.613 -11.068 c -0.893 -1.566 -1.721 -2.838 -2.451 -3.96 C 1.422 42.56 0 40.374 0 35.612 C 0 23.627 10.533 6.598 20.366 6.598 c 2.962 0 4.536 1.337 5.924 2.516 c 1.589 1.35 2.848 2.417 6.189 1.58 c 0.497 -0.126 0.972 -0.252 1.431 -0.373 c 3.201 -0.844 5.729 -1.51 11.09 -1.51 c 5.36 0 7.889 0.667 11.09 1.51 c 0.46 0.121 0.935 0.247 1.436 0.375 c 3.34 0.834 4.596 -0.231 6.185 -1.582 c 1.389 -1.18 2.962 -2.516 5.924 -2.516 C 79.467 6.598 90 23.627 90 35.612 c 0 4.763 -1.423 6.949 -3.575 10.258 c -0.73 1.122 -1.558 2.394 -2.451 3.959 c -1.73 3.032 -2.688 7.117 -3.612 11.067 C 78.933 66.996 77.699 72.263 73.74 72.263 z" style="stroke: none; stroke-width: 1; stroke-dasharray: none; stroke-linecap: butt; stroke-linejoin: miter; stroke-miterlimit: 10; fill: rgb(0,0,0); fill-rule: nonzero; opacity: 1;" transform=" matrix(1 0 0 1 0 0) " stroke-linecap="round" />
	<path d="M 45 83.402 c -7.366 0 -13.569 -3.084 -17.018 -8.462 c -2.254 -3.324 -2.766 -6.189 -3.216 -8.718 c -0.471 -2.642 -0.878 -4.924 -3.066 -7.549 c -0.354 -0.425 -0.296 -1.056 0.128 -1.409 c 0.424 -0.354 1.054 -0.296 1.408 0.128 c 2.528 3.033 3.021 5.802 3.499 8.479 c 0.436 2.446 0.887 4.975 2.917 7.968 c 3.133 4.885 8.579 7.563 15.349 7.563 s 12.216 -2.679 15.335 -7.542 c 2.044 -3.015 2.495 -5.544 2.931 -7.989 c 0.478 -2.678 0.971 -5.446 3.498 -8.479 c 0.354 -0.424 0.982 -0.48 1.409 -0.128 c 0.424 0.354 0.481 0.984 0.128 1.409 c -2.188 2.625 -2.596 4.907 -3.066 7.549 c -0.45 2.528 -0.961 5.394 -3.229 8.74 C 58.569 80.318 52.366 83.402 45 83.402 z" style="stroke: none; stroke-width: 1; stroke-dasharray: none; stroke-linecap: butt; stroke-linejoin: miter; stroke-miterlimit: 10; fill: rgb(0,0,0); fill-rule: nonzero; opacity: 1;" transform=" matrix(1 0 0 1 0 0) " stroke-linecap="round" />
	<path d="M 31.783 77.851 c 5.212 0.026 9.819 -1.327 13.218 -5.44 c 3.398 4.113 8.005 5.466 13.216 5.44 l 0 0 c -3.442 3.03 -8.094 4.551 -13.217 4.551 c -5.096 0 -9.727 -1.506 -13.164 -4.505 L 31.783 77.851 z" style="stroke: none; stroke-width: 1; stroke-dasharray: none; stroke-linecap: butt; stroke-linejoin: miter; stroke-miterlimit: 10; fill: rgb(230,141,121); fill-rule: nonzero; opacity: 1;" transform=" matrix(1 0 0 1 0 0) " stroke-linecap="round" />
	<path d="M 45 83.402 c -5.479 0 -10.259 -1.644 -13.822 -4.752 c -0.314 -0.275 -0.452 -0.739 -0.304 -1.13 c 0.147 -0.39 0.494 -0.669 0.91 -0.669 c 0.048 -0.007 0.096 0 0.144 0 c 5.53 0 9.441 -1.615 12.302 -5.078 c 0.38 -0.461 1.162 -0.461 1.542 0 c 2.885 3.492 6.849 5.064 12.44 5.078 c 0.423 0.026 0.791 0.255 0.939 0.645 s 0.039 0.831 -0.274 1.106 C 55.309 81.742 50.51 83.402 45 83.402 z M 34.639 78.715 c 2.888 1.767 6.417 2.688 10.361 2.688 c 3.949 0 7.48 -0.922 10.364 -2.688 c -4.313 -0.452 -7.729 -2.036 -10.364 -4.799 C 42.367 76.678 38.951 78.262 34.639 78.715 z" style="stroke: none; stroke-width: 1; stroke-dasharray: none; stroke-linecap: butt; stroke-linejoin: miter; stroke-miterlimit: 10; fill: rgb(0,0,0); fill-rule: nonzero; opacity: 1;" transform=" matrix(1 0 0 1 0 0) " stroke-linecap="round" />
</g>
</svg>