<?xml version="1.0" encoding="UTF-8" standalone="no"?>
<!-- Created with Inkscape (http://www.inkscape.org/) -->

<svg
   xmlns:dc="http://purl.org/dc/elements/1.1/"
   xmlns:cc="http://creativecommons.org/ns#"
   xmlns:rdf="http://www.w3.org/1999/02/22-rdf-syntax-ns#"
   xmlns:svg="http://www.w3.org/2000/svg"
   xmlns="http://www.w3.org/2000/svg"
   version="1.1"
   width="300"
   height="76.258904"
   id="svg4597">
  <title
     id="title4700">HMRC</title>
  <defs
     id="defs4599">
    <clipPath
       id="clipPath50">
      <path
         d="m 45.354,994.3989 141.733,0 0,38.772 -141.733,0 0,-38.772 z"
         id="path52" />
    </clipPath>
    <clipPath
       id="clipPath58">
      <path
         d="m 0,0 595.27594,0 0,1062.9918 L 0,1062.9918 0,0 z"
         id="path60" />
    </clipPath>
    <clipPath
       id="clipPath68">
      <path
         d="m -0.32244,-25.64732 4.23202,0 0,27.41648 -4.23202,0 0,-27.41648 z"
         id="path70" />
    </clipPath>
    <clipPath
       id="clipPath76">
      <path
         d="m -0.079,-0.1995 1.079,0 0,1.3428 -1.079,0 0,-1.3428 z"
         id="path78" />
    </clipPath>
  </defs>
  <metadata
     id="metadata4602">
    <rdf:RDF>
      <cc:Work
         rdf:about="">
        <dc:format>image/svg+xml</dc:format>
        <dc:type
           rdf:resource="http://purl.org/dc/dcmitype/StillImage" />
        <dc:title>HMRC</dc:title>
        <dc:rights>
          <cc:Agent>
            <dc:title>HMRC</dc:title>
          </cc:Agent>
        </dc:rights>
      </cc:Work>
    </rdf:RDF>
  </metadata>
  <g
     transform="matrix(1.7557801,0,0,1.8087796,-807.12125,-402.83426)"
     id="layer1">
    <g
       transform="matrix(1.3303571,0,0,-1.25,398.61645,1509.5497)"
       id="g46">
      <g
         clip-path="url(#clipPath50)"
         id="g48">
        <g
           id="g54">
          <g
             clip-path="url(#clipPath58)"
             id="g56">
            <g
               transform="matrix(140.66,0,0,38.772,45.354,994.3979)"
               id="g62">
              <g
                 id="g64">
                <g
                   clip-path="url(#clipPath68)"
                   id="g66">
                  <g
                     id="g72">
                    <g
                       clip-path="url(#clipPath76)"
                       id="g74">
                      <path
                         d="m 0.1238,0.8932 c 0.0643,0 0.1167,-0.19 0.1167,-0.4235 0,-0.2336 -0.0524,-0.4236 -0.1167,-0.4236 -0.0644,0 -0.1168,0.19 -0.1168,0.4236 0,0.2335 0.0524,0.4235 0.1168,0.4235 z m 0,-0.7975 c 0.0568,0 0.103,0.1678 0.103,0.374 0,0.2062 -0.0462,0.3739 -0.103,0.3739 -0.0569,0 -0.1031,-0.1677 -0.1031,-0.3739 0,-0.2062 0.0462,-0.374 0.1031,-0.374"
                         id="path80"
                         style="fill:#009090;fill-opacity:1;fill-rule:nonzero;stroke:none" />
                      <path
                         d="m 0.1321,0.6395 c 0,-0.0183 -0.004,-0.0332 -0.0091,-0.0332 -0.005,0 -0.0091,0.0149 -0.0091,0.0332 0,0.0183 0.0041,0.0332 0.0091,0.0332 0.0051,0 0.0091,-0.0149 0.0091,-0.0332"
                         id="path82"
                         style="fill:#009090;fill-opacity:1;fill-rule:nonzero;stroke:none" />
                      <path
                         d="M 0.1909,0.409 C 0.1906,0.4037 0.1875,0.3248 0.1875,0.324 l -3e-4,-0.0074 c 0,0 -1e-4,-0.0037 -0.0012,-0.0063 -6e-4,-0.0014 -0.0047,-0.0115 -0.0047,-0.0115 0,0 -5e-4,-0.0013 -6e-4,-0.0026 -10e-5,-0.0019 3e-4,-0.0036 3e-4,-0.0036 L 0.1849,0.2738 c 4e-4,-0.0016 7e-4,-0.0033 7e-4,-0.0055 0,-0.0025 -4e-4,-0.0047 -9e-4,-0.006 l -0.1235,1e-4 c -5e-4,0.0014 -8e-4,0.0035 -8e-4,0.0059 0,9e-4 0,0.0017 10e-5,0.0025 0,0 2e-4,0.0013 5e-4,0.0026 l 0.0037,0.0198 c 0,0 4e-4,0.0034 -3e-4,0.0054 -8e-4,0.002 -0.005,0.0123 -0.005,0.0123 0,0 -7e-4,0.0021 -8e-4,0.0042 0,0.0021 -3e-4,0.0089 -3e-4,0.0094 -3e-4,0.0067 -0.0031,0.0794 -0.0034,0.0845 -10e-5,0.0037 0,0.0067 5e-4,0.0091 4e-4,0.0022 0.0011,0.0036 0.002,0.0041 3e-4,2e-4 0.0085,0.0041 0.0094,0.0045 3e-4,10e-5 7e-4,-6e-4 8e-4,-0.0024 1e-4,-0.002 -3e-4,-0.0031 -6e-4,-0.0034 l 1e-4,10e-5 C 0.0628,0.4136 0.0602,0.3987 0.0601,0.3808 c 0.0068,0.005 0.0085,0.0177 0.0089,0.0351 0,7e-4 2e-4,0.0021 8e-4,0.0022 5e-4,2e-4 8e-4,-7e-4 8e-4,-0.0015 l 0,-2e-4 0.0026,-0.0753 0,-10e-5 c 0,-0.001 -2e-4,-0.0023 -6e-4,-0.0027 -5e-4,-4e-4 -8e-4,6e-4 -9e-4,0.0017 C 0.0696,0.3559 0.0655,0.3654 0.0607,0.3658 0.062,0.3482 0.0656,0.3344 0.0703,0.3298 l 0,0 c 0.0036,0.0013 0.0071,0.0026 0.0107,0.0037 0.0034,0.0037 0.006,0.0104 0.0069,0.026 l 0,-10e-5 c -1e-4,0.002 -2e-4,0.004 -4e-4,0.0061 C 0.0867,0.374 0.085,0.3796 0.0831,0.3771 0.0811,0.3744 0.0809,0.3663 0.0817,0.3578 0.0821,0.3543 0.0826,0.3513 0.0833,0.3492 0.0812,0.3494 0.0794,0.352 0.078,0.3595 0.0755,0.3718 0.0758,0.391 0.0796,0.3989 0.082,0.4041 0.0854,0.398 0.088,0.3863 0.0872,0.4047 0.0841,0.421 0.0838,0.4352 0.0833,0.4552 0.0854,0.4775 0.0885,0.4836 0.0916,0.4794 0.0945,0.4588 0.0948,0.4388 0.0949,0.4245 0.0923,0.4058 0.0921,0.387 0.0943,0.4004 0.0975,0.4084 0.1002,0.4044 0.1042,0.3984 0.1052,0.3796 0.1033,0.3661 0.1021,0.3581 0.1004,0.3545 0.0983,0.3534 c 6e-4,0.0024 0.001,0.0056 0.0013,0.0093 5e-4,0.0088 0,0.0168 -0.0021,0.0184 C 0.0956,0.3827 0.0941,0.3763 0.0936,0.3674 0.0934,0.3646 0.0934,0.3618 0.0935,0.3593 l 0,0 C 0.095,0.3459 0.0978,0.3413 0.1013,0.3381 c 0.0036,6e-4 0.0072,0.001 0.0108,0.0013 l 0,1e-4 4e-4,2e-4 C 0.1176,0.3427 0.1202,0.3545 0.1207,0.3765 0.1162,0.3741 0.1127,0.3646 0.1111,0.3501 c -1e-4,-9e-4 -3e-4,-0.0022 -9e-4,-0.0022 -7e-4,0 -0.001,0.0016 -0.001,0.0028 l 0,0.0694 0,2e-4 c 10e-5,0.0011 4e-4,0.0023 9e-4,0.0023 5e-4,0 8e-4,-0.0013 9e-4,-0.0021 l 0,-10e-5 0,-10e-5 c 9e-4,-0.0128 0.0027,-0.0249 0.0097,-0.027 -6e-4,0.0246 -0.0037,0.0322 -0.0082,0.0358 -1e-4,0 -3e-4,2e-4 -5e-4,9e-4 -1e-4,3e-4 -2e-4,0.001 -2e-4,0.002 0,10e-5 0,10e-5 0,2e-4 0,0.0011 1e-4,0.0018 2e-4,0.0022 2e-4,5e-4 5e-4,7e-4 6e-4,6e-4 l 0.0208,0 c 1e-4,0 4e-4,0 6e-4,-9e-4 10e-5,-3e-4 2e-4,-0.001 2e-4,-0.0021 l 0,-10e-5 c 0,-0.001 -1e-4,-0.0016 -2e-4,-0.002 -1e-4,-6e-4 -3e-4,-7e-4 -5e-4,-8e-4 C 0.1291,0.424 0.1262,0.4107 0.1254,0.3934 0.1322,0.3957 0.134,0.4077 0.1349,0.4205 c 1e-4,8e-4 4e-4,0.0023 0.001,0.0023 5e-4,0 8e-4,-0.0016 8e-4,-0.0026 l 1e-4,-2e-4 0,-0.0695 0,-10e-5 c -1e-4,-9e-4 -3e-4,-0.0027 -0.001,-0.0027 -6e-4,0 -9e-4,0.0014 -0.001,0.0024 C 0.1332,0.3644 0.1298,0.3738 0.1254,0.3764 0.1262,0.3578 0.1293,0.3435 0.1335,0.3396 l 4e-4,-10e-5 c 0.0036,-2e-4 0.0072,-6e-4 0.0108,-0.0011 0.0036,0.0021 0.0064,0.0075 0.0079,0.0227 l 0,-10e-5 c 0,0.002 -1e-4,0.0041 -2e-4,0.0062 C 0.1519,0.376 0.1504,0.3824 0.1484,0.3808 0.1463,0.379 0.1459,0.3711 0.1464,0.3623 0.1466,0.3586 0.1471,0.3554 0.1477,0.353 0.1456,0.3541 0.1439,0.3576 0.1427,0.3656 0.1408,0.379 0.1417,0.3979 0.1457,0.404 0.1483,0.408 0.1515,0.4005 0.1536,0.3876 0.1535,0.4063 0.151,0.4238 0.1512,0.4381 0.1514,0.4582 0.1543,0.4793 0.1575,0.4839 0.1605,0.4783 0.1626,0.4565 0.1622,0.4366 0.1618,0.4224 0.1586,0.405 0.1578,0.3864 0.1603,0.3987 0.1638,0.4052 0.1663,0.4 0.1701,0.3922 0.1704,0.3731 0.168,0.3606 0.1666,0.3531 0.1648,0.3504 0.1627,0.3502 c 7e-4,0.0021 0.0012,0.0051 0.0016,0.0087 8e-4,0.0085 6e-4,0.0166 -0.0014,0.0192 C 0.161,0.3805 0.1593,0.3749 0.1585,0.3663 0.1582,0.3636 0.1581,0.3608 0.1581,0.3583 l 0,0 C 0.1591,0.3447 0.1617,0.3388 0.1649,0.3341 0.1686,0.333 0.1724,0.3318 0.176,0.3304 0.1805,0.3355 0.1839,0.3489 0.1852,0.3658 0.1803,0.3654 0.1762,0.3559 0.1742,0.34 0.174,0.3389 0.1737,0.3379 0.1732,0.3383 c -4e-4,4e-4 -6e-4,0.0016 -6e-4,0.0027 l 0,10e-5 0.0026,0.0753 0,2e-4 c 1e-4,8e-4 3e-4,0.0017 8e-4,0.0015 6e-4,-1e-4 8e-4,-0.0015 8e-4,-0.0023 4e-4,-0.0173 0.0021,-0.03 0.0089,-0.035 -1e-4,0.0179 -0.0026,0.0328 -0.007,0.0402 l 10e-5,-10e-5 c -3e-4,2e-4 -6e-4,0.0014 -5e-4,0.0034 1e-4,0.0018 4e-4,0.0025 7e-4,0.0024 0.001,-4e-4 0.0092,-0.0043 0.0094,-0.0045 9e-4,-5e-4 0.0016,-0.002 0.002,-0.0042 5e-4,-0.0023 7e-4,-0.0053 5e-4,-0.009 z M 0.1238,0.3284 c -4e-4,0.0014 -10e-4,0.0014 -0.0014,0 L 0.1175,0.3108 c -4e-4,-0.0015 -4e-4,-0.0037 0,-0.0051 L 0.1224,0.288 c 4e-4,-0.0014 0.001,-0.0014 0.0014,0 l 0.0048,0.0177 c 4e-4,0.0014 4e-4,0.0036 0,0.0051 L 0.1238,0.3284 z M 0.1007,0.3098 C 0.1006,0.3148 0.0994,0.3187 0.098,0.3184 L 0.0844,0.3158 C 0.083,0.3155 0.0819,0.3112 0.082,0.3062 l 1e-4,-0.007 C 0.0822,0.2942 0.0834,0.2903 0.0848,0.2905 l 0.0136,0.0027 c 0.0014,2e-4 0.0025,0.0045 0.0024,0.0096 l -1e-4,0.007 z M 0.1451,0.3028 C 0.145,0.2977 0.1461,0.2934 0.1475,0.2932 L 0.1611,0.2905 c 0.0014,-2e-4 0.0026,0.0037 0.0027,0.0087 l 10e-5,0.007 c 1e-4,0.005 -0.001,0.0093 -0.0024,0.0096 L 0.1478,0.3184 C 0.1465,0.3187 0.1453,0.3148 0.1452,0.3098"
                         id="path84"
                         style="fill:#009090;fill-opacity:1;fill-rule:nonzero;stroke:none" />
                      <path
                         d="m 0.1131,0.7665 c -1e-4,-3e-4 -3e-4,-0.001 -3e-4,-0.002 0,-0.0011 1e-4,-0.0018 2e-4,-0.0021 2e-4,-6e-4 4e-4,-8e-4 5e-4,-9e-4 C 0.1159,0.7597 0.1175,0.7567 0.1186,0.7521 0.1199,0.7469 0.1206,0.7394 0.1208,0.7296 0.1146,0.7315 0.113,0.7423 0.1122,0.7538 c -10e-5,9e-4 -3e-4,0.0021 -8e-4,0.0021 -5e-4,0 -8e-4,-0.0011 -8e-4,-0.0021 l -1e-4,-2e-4 0,-0.0627 c 0,-0.0011 3e-4,-0.0027 9e-4,-0.0027 7e-4,0 8e-4,0.0013 9e-4,0.0019 l 0,3e-4 C 0.1138,0.7034 0.1169,0.7119 0.1209,0.7141 0.1206,0.7038 0.1199,0.6961 0.1186,0.6906 0.1175,0.686 0.1159,0.6831 0.1135,0.6813 l 0,-10e-5 c -2e-4,-10e-5 -4e-4,-4e-4 -5e-4,-8e-4 -1e-4,-4e-4 -2e-4,-0.0011 -2e-4,-0.0022 0,-0.001 2e-4,-0.0016 3e-4,-0.002 2e-4,-5e-4 4e-4,-6e-4 5e-4,-6e-4 l 0.0188,0 c 1e-4,0 4e-4,0 6e-4,8e-4 10e-5,4e-4 2e-4,0.001 2e-4,0.002 0,0 0,10e-5 0,10e-5 0,10e-5 0,10e-5 0,10e-5 0,7e-4 -1e-4,0.0013 -2e-4,0.0018 -1e-4,3e-4 -4e-4,7e-4 -5e-4,8e-4 C 0.13,0.6842 0.1279,0.6903 0.1266,0.6988 0.1259,0.7034 0.1255,0.7085 0.1252,0.714 0.1291,0.7116 0.1322,0.7031 0.1336,0.6903 l 0,-10e-5 c 2e-4,-0.001 3e-4,-0.0021 9e-4,-0.0021 7e-4,0 9e-4,0.0016 0.001,0.0025 l 0,7e-4 0,0.0622 0,3e-4 c -1e-4,0.0011 -4e-4,0.0023 -9e-4,0.0023 -5e-4,0 -8e-4,-0.0012 -9e-4,-0.0023 -8e-4,-0.0113 -0.0024,-0.022 -0.0084,-0.0242 2e-4,0.0052 7e-4,0.01 0.0013,0.0144 0.0013,0.0085 0.0034,0.0145 0.0059,0.0175 2e-4,2e-4 4e-4,5e-4 5e-4,9e-4 10e-5,4e-4 2e-4,0.001 2e-4,0.0017 0,10e-5 0,2e-4 0,3e-4 0,9e-4 -1e-4,0.0015 -2e-4,0.0019 -2e-4,8e-4 -5e-4,9e-4 -6e-4,9e-4 l -0.0188,0 c -1e-4,0 -3e-4,-10e-5 -5e-4,-7e-4"
                         id="path86"
                         style="fill:#009090;fill-opacity:1;fill-rule:nonzero;stroke:none" />
                      <path
                         d="m 0.1194,0.5603 c 0,-0.0072 0.0016,-0.013 0.0036,-0.013 0.002,0 0.0036,0.0058 0.0036,0.013 0,0.0072 -0.0016,0.013 -0.0036,0.013 -0.002,0 -0.0036,-0.0058 -0.0036,-0.013"
                         id="path88"
                         style="fill:#009090;fill-opacity:1;fill-rule:nonzero;stroke:none" />
                      <path
                         d="m 0.1195,0.5912 c 0,-0.0071 0.0016,-0.0128 0.0035,-0.0128 0.002,0 0.0036,0.0057 0.0036,0.0128 0,0.0071 -0.0016,0.0129 -0.0036,0.0129 -0.0019,0 -0.0035,-0.0058 -0.0035,-0.0129"
                         id="path90"
                         style="fill:#009090;fill-opacity:1;fill-rule:nonzero;stroke:none" />
                      <path
                         d="m 0.1193,0.5278 c 0,-0.0075 0.0016,-0.0136 0.0037,-0.0136 0.0021,0 0.0038,0.0061 0.0038,0.0136 0,0.0076 -0.0017,0.0137 -0.0038,0.0137 -0.0021,0 -0.0037,-0.0061 -0.0037,-0.0137"
                         id="path92"
                         style="fill:#009090;fill-opacity:1;fill-rule:nonzero;stroke:none" />
                      <path
                         d="m 0.1191,0.4934 c 0,-0.0079 0.0017,-0.0143 0.0039,-0.0143 0.0022,0 0.004,0.0064 0.004,0.0143 0,0.0079 -0.0018,0.0143 -0.004,0.0143 -0.0022,0 -0.0039,-0.0064 -0.0039,-0.0143"
                         id="path94"
                         style="fill:#009090;fill-opacity:1;fill-rule:nonzero;stroke:none" />
                      <path
                         d="m 0.1189,0.4577 c 0,-0.0083 0.0018,-0.015 0.0041,-0.015 0.0023,0 0.0041,0.0067 0.0041,0.015 0,0.0082 -0.0018,0.015 -0.0041,0.015 -0.0023,0 -0.0041,-0.0068 -0.0041,-0.015"
                         id="path96"
                         style="fill:#009090;fill-opacity:1;fill-rule:nonzero;stroke:none" />
                      <path
                         d="m 0.1177,0.5577 c 0,0 0,0.0033 -3e-4,0.0071 -3e-4,0.0039 -0.0011,0.0077 -0.0025,0.0108 -0.001,0.0025 -0.0021,0.0047 -0.0031,0.0068 0.0011,0.0028 0.0019,0.0076 0.0019,0.013 0,0.0087 -0.0019,0.0157 -0.0043,0.0157 -0.0024,0 -0.0043,-0.007 -0.0043,-0.0157 0,-8e-4 0,-0.0015 1e-4,-0.0023 -1e-4,10e-5 -2e-4,2e-4 -3e-4,4e-4 -10e-4,0.0011 -0.002,0.0023 -0.003,0.0034 0.0013,0.0027 0.0022,0.0078 0.0022,0.0136 0,0.0087 -0.002,0.0157 -0.0044,0.0157 -0.0023,0 -0.0043,-0.007 -0.0043,-0.0157 0,-0.0027 2e-4,-0.0052 6e-4,-0.0073 -0.0021,0.0021 -0.0036,0.0035 -0.0036,0.0035 -2e-4,2e-4 -4e-4,3e-4 -6e-4,5e-4 0.0011,0.0028 0.0019,0.0076 0.0019,0.013 0,0.0086 -0.0019,0.0156 -0.0043,0.0156 -0.0024,0 -0.0043,-0.007 -0.0043,-0.0156 0,-0.0031 2e-4,-0.0059 6e-4,-0.0083 0,10e-5 0,10e-5 -1e-4,10e-5 -0.0015,0.001 -0.0032,0.0012 -0.0047,0.0012 5e-4,0.0025 8e-4,0.0057 8e-4,0.0091 0,0.0087 -0.0019,0.0156 -0.0043,0.0156 -0.0024,0 -0.0043,-0.0069 -0.0043,-0.0156 0,-0.0048 6e-4,-0.0091 0.0016,-0.0119 C 0.0731,0.6089 0.0715,0.607 0.07,0.6045 c 10e-5,0.0014 2e-4,0.0029 2e-4,0.0045 0,0.0087 -0.0019,0.0157 -0.0043,0.0157 -0.0024,0 -0.0043,-0.007 -0.0043,-0.0157 0,-0.0076 0.0015,-0.0139 0.0035,-0.0153 C 0.0638,0.5901 0.0625,0.5861 0.0614,0.5817 c 0,2e-4 0,3e-4 0,5e-4 0,0.0087 -0.0019,0.0156 -0.0043,0.0156 -0.0024,0 -0.0043,-0.0069 -0.0043,-0.0156 0,-0.0087 0.0019,-0.0156 0.0043,-0.0156 4e-4,0 8e-4,2e-4 0.0012,6e-4 C 0.0575,0.5628 0.0568,0.558 0.0561,0.5531 0.0553,0.5572 0.054,0.5599 0.0526,0.5599 c -0.0024,0 -0.0044,-0.007 -0.0044,-0.0156 0,-0.0087 0.002,-0.0157 0.0044,-0.0157 4e-4,0 9e-4,4e-4 0.0013,9e-4 -2e-4,-0.0043 -4e-4,-0.0086 -6e-4,-0.0131 -5e-4,8e-4 -0.001,0.0012 -0.0016,0.0012 -0.0024,0 -0.0043,-0.007 -0.0043,-0.0157 0,-0.0086 0.0019,-0.0156 0.0043,-0.0156 6e-4,0 0.0013,6e-4 0.0018,0.0016 1e-4,-0.0017 2e-4,-0.0034 2e-4,-0.0052 2e-4,-0.0018 3e-4,-0.0034 4e-4,-0.0049 C 0.052,0.4768 0.0503,0.4703 0.0503,0.4623 c 0,-0.0086 0.002,-0.0156 0.0043,-0.0156 9e-4,0 0.0018,0.001 0.0024,0.0026 6e-4,-0.005 0.0014,-0.0114 0.0023,-0.0188 0.0017,8e-4 0.0042,0.002 0.0057,0.0028 C 0.0634,0.446 0.0624,0.4534 0.0624,0.4534 0.0623,0.4558 0.0605,0.4674 0.0598,0.4769 c -7e-4,0.0077 -0.0011,0.022 -0.0011,0.0244 0,0.0246 0.0024,0.047 0.0064,0.0632 0.004,0.0161 0.0095,0.0262 0.0159,0.0262 0.0013,0 0.0028,-3e-4 0.0063,-0.0028 C 0.0909,0.5846 0.0927,0.5829 0.0959,0.5798 0.1013,0.5737 0.1035,0.5707 0.1112,0.5572 0.112,0.5558 0.1123,0.5533 0.1124,0.5514 c 2e-4,-0.0018 2e-4,-0.0033 2e-4,-0.0033 l 3e-4,-0.1042 0.0048,0"
                         id="path98"
                         style="fill:#009090;fill-opacity:1;fill-rule:nonzero;stroke:none" />
                      <path
                         d="m 0.1283,0.5577 c 0,0 0,0.0033 3e-4,0.0071 4e-4,0.0039 0.0012,0.0077 0.0025,0.0108 0.001,0.0025 0.0021,0.0047 0.0031,0.0068 -0.0011,0.0028 -0.0019,0.0076 -0.0019,0.013 0,0.0087 0.0019,0.0157 0.0043,0.0157 0.0024,0 0.0043,-0.007 0.0043,-0.0157 0,-8e-4 0,-0.0015 0,-0.0023 10e-5,10e-5 2e-4,2e-4 2e-4,4e-4 0.001,0.0011 0.0021,0.0023 0.0031,0.0034 C 0.1429,0.5996 0.142,0.6047 0.142,0.6105 c 0,0.0087 0.0019,0.0157 0.0043,0.0157 0.0024,0 0.0043,-0.007 0.0043,-0.0157 0,-0.0027 -2e-4,-0.0052 -5e-4,-0.0073 0.0021,0.0021 0.0035,0.0035 0.0035,0.0035 3e-4,2e-4 5e-4,3e-4 7e-4,5e-4 -0.0012,0.0028 -0.002,0.0076 -0.002,0.013 0,0.0086 0.002,0.0156 0.0044,0.0156 0.0023,0 0.0043,-0.007 0.0043,-0.0156 0,-0.0031 -3e-4,-0.0059 -7e-4,-0.0083 10e-5,10e-5 10e-5,10e-5 10e-5,10e-5 0.0015,0.001 0.0032,0.0012 0.0047,0.0012 -5e-4,0.0025 -8e-4,0.0057 -8e-4,0.0091 0,0.0087 0.0019,0.0156 0.0043,0.0156 0.0024,0 0.0043,-0.0069 0.0043,-0.0156 0,-0.0048 -6e-4,-0.0091 -0.0015,-0.0119 C 0.173,0.6089 0.1745,0.607 0.176,0.6045 c -10e-5,0.0014 -2e-4,0.0029 -2e-4,0.0045 0,0.0087 0.0019,0.0157 0.0043,0.0157 0.0024,0 0.0043,-0.007 0.0043,-0.0157 0,-0.0076 -0.0015,-0.0139 -0.0034,-0.0153 0.0013,-0.0036 0.0025,-0.0076 0.0036,-0.012 0,2e-4 0,3e-4 0,5e-4 0,0.0087 0.002,0.0156 0.0043,0.0156 0.0024,0 0.0043,-0.0069 0.0043,-0.0156 0,-0.0087 -0.0019,-0.0156 -0.0043,-0.0156 -4e-4,0 -8e-4,2e-4 -0.0012,6e-4 9e-4,-0.0044 0.0016,-0.0092 0.0022,-0.0141 8e-4,0.0041 0.0021,0.0068 0.0036,0.0068 0.0024,0 0.0043,-0.007 0.0043,-0.0156 0,-0.0087 -0.0019,-0.0157 -0.0043,-0.0157 -5e-4,0 -0.001,4e-4 -0.0014,9e-4 3e-4,-0.0043 5e-4,-0.0086 6e-4,-0.0131 5e-4,8e-4 0.0011,0.0012 0.0017,0.0012 0.0023,0 0.0043,-0.007 0.0043,-0.0157 0,-0.0086 -0.002,-0.0156 -0.0043,-0.0156 -7e-4,0 -0.0013,6e-4 -0.0019,0.0016 -1e-4,-0.0017 -1e-4,-0.0034 -2e-4,-0.0052 -10e-5,-0.0018 -2e-4,-0.0034 -4e-4,-0.0049 0.0022,-0.001 0.0038,-0.0075 0.0038,-0.0155 0,-0.0086 -0.0019,-0.0156 -0.0043,-0.0156 -9e-4,0 -0.0017,0.001 -0.0024,0.0026 C 0.1884,0.4443 0.1876,0.4379 0.1868,0.4305 0.185,0.4313 0.1826,0.4325 0.181,0.4333 0.1826,0.446 0.1836,0.4534 0.1836,0.4534 c 10e-5,0.0024 0.0019,0.014 0.0027,0.0235 6e-4,0.0077 0.001,0.022 0.001,0.0244 0,0.0246 -0.0024,0.047 -0.0064,0.0632 C 0.177,0.5806 0.1714,0.5907 0.1651,0.5907 0.1638,0.5907 0.1622,0.5904 0.1587,0.5879 0.1551,0.5846 0.1534,0.5829 0.1502,0.5798 0.1448,0.5737 0.1426,0.5707 0.1348,0.5572 0.1341,0.5558 0.1337,0.5533 0.1336,0.5514 0.1334,0.5496 0.1335,0.5481 0.1335,0.5481 l -4e-4,-0.1042 -0.0048,0"
                         id="path100"
                         style="fill:#009090;fill-opacity:1;fill-rule:nonzero;stroke:none" />
                      <path
                         d="m 0.2761,0.3536 c 0,-0.0245 0.0027,-0.0435 0.007,-0.0633 -0.0116,-0.0116 -0.018,-0.0418 -0.018,-0.0865 0,-0.058 0.0107,-0.0954 0.0272,-0.0954 0.0102,0 0.0175,0.0132 0.0235,0.0422 0.002,-0.0092 0.0085,-0.0387 0.0085,-0.0387 l 0.0179,0 c 0,0 -0.0174,0.0779 -0.0187,0.084 0.0011,0.0067 0.0118,0.0712 0.0118,0.0714 2e-4,7e-4 0.0037,0.0182 0.0037,0.0182 l -0.0152,0 c 0,0 -0.0071,-0.0422 -0.0089,-0.0535 C 0.3123,0.2433 0.2965,0.3114 0.2965,0.3114 0.2923,0.3301 0.291,0.3378 0.291,0.3527 c 0,0.0184 0.003,0.0285 0.0085,0.0285 l 0.0185,0 0,0.0343 L 0.3169,0.417 C 0.3116,0.424 0.3062,0.427 0.2989,0.427 0.285,0.427 0.2761,0.3982 0.2761,0.3536 z M 0.2806,0.2064 c 0,0.0335 0.0027,0.0479 0.0099,0.0522 C 0.2916,0.2537 0.3058,0.1919 0.3072,0.186 0.3069,0.1842 0.3066,0.1823 0.3066,0.1823 0.3032,0.1616 0.2988,0.1515 0.2933,0.1515 c -0.0086,0 -0.0127,0.018 -0.0127,0.0549"
                         id="path102"
                         style="fill:#009090;fill-opacity:1;fill-rule:nonzero;stroke:none" />
                      <path
                         d="m 0.3187,0.8313 c 0,0 0,-0.1171 0,-0.1283 -0.003,0 -0.0327,0 -0.0356,0 0,0.0112 0,0.1283 0,0.1283 l -0.015,0 0,-0.312 0.015,0 c 0,0 0,0.129 0,0.1403 0.0029,0 0.0326,0 0.0356,0 0,-0.0113 0,-0.1403 0,-0.1403 l 0.015,0 0,0.312"
                         id="path104"
                         style="fill:#009090;fill-opacity:1;fill-rule:nonzero;stroke:none" />
                      <path
                         d="m 0.4125,0.8313 c 0,0 -0.0157,-0.2155 -0.0181,-0.2482 -0.0024,0.0325 -0.019,0.2482 -0.019,0.2482 l -0.0193,0 -0.0093,-0.312 0.0145,0 c 0,0 0.0048,0.1871 0.0061,0.2345 C 0.371,0.7077 0.3859,0.5193 0.3859,0.5193 l 0.0166,0 c 0,0 0.0138,0.1852 0.0173,0.2324 C 0.4211,0.7033 0.4262,0.5193 0.4262,0.5193 l 0.0143,0 -0.0094,0.312"
                         id="path106"
                         style="fill:#009090;fill-opacity:1;fill-rule:nonzero;stroke:none" />
                      <path
                         d="m 0.4694,0.8313 0,-0.312 0.015,0 c 0,0 0,0.1182 0,0.1294 0.0025,0 0.01,0 0.01,0 0.0064,0 0.0085,-0.0103 0.0113,-0.0348 l 0.0106,-0.0946 0.0169,0 -0.0107,0.0893 C 0.5196,0.6331 0.5167,0.6505 0.5114,0.6626 0.5222,0.6767 0.5277,0.704 0.5277,0.744 c 0,0.0538 -0.0108,0.0873 -0.0283,0.0873 l -0.03,0 z M 0.4957,0.7879 c 0.0137,0 0.0161,-0.0148 0.0161,-0.0459 0,-0.036 -0.0047,-0.0507 -0.0161,-0.0507 0,0 -0.0095,0 -0.0121,0 0,0.0104 0,0.0862 0,0.0966 0.0026,0 0.0121,0 0.0121,0"
                         id="path108"
                         style="fill:#009090;fill-opacity:1;fill-rule:nonzero;stroke:none" />
                      <path
                         d="m 0.5352,0.6429 c 0,-0.0835 0.0107,-0.1276 0.0309,-0.1276 0.0109,0 0.0175,0.0067 0.0212,0.0122 l 0.001,0.0016 0,0.0305 -0.0197,0 c -0.0109,0 -0.0177,0.0115 -0.0182,0.067 0.0032,0 0.042,0 0.042,0 l 0,0.0167 c 0,0.0985 -0.0151,0.1192 -0.0278,0.1192 -0.0184,0 -0.0294,-0.0447 -0.0294,-0.1196 z M 0.5656,0.722 c 0.0087,0 0.0126,-0.0155 0.0126,-0.0501 0,0 0,-0.0032 0,-0.0064 -0.0028,0 -0.0233,0 -0.0263,0 4e-4,0.0403 0.0043,0.0565 0.0137,0.0565"
                         id="path110"
                         style="fill:#009090;fill-opacity:1;fill-rule:nonzero;stroke:none" />
                      <path
                         d="m 0.6421,0.7592 c 0,0 -0.0136,-0.1509 -0.0161,-0.1787 C 0.6235,0.6083 0.61,0.7592 0.61,0.7592 l -0.0154,0 0.0231,-0.2405 0.0161,0 0.0231,0.2405"
                         id="path112"
                         style="fill:#009090;fill-opacity:1;fill-rule:nonzero;stroke:none" />
                      <path
                         d="m 0.6584,0.6429 c 0,-0.0835 0.0107,-0.1276 0.0309,-0.1276 0.0109,0 0.0175,0.0067 0.0212,0.0122 l 0.001,0.0016 0,0.0305 -0.0197,0 c -0.0065,0 -0.0109,0.0047 -0.0137,0.0149 -0.0028,0.0103 -0.0042,0.0276 -0.0045,0.0521 0.0033,0 0.042,0 0.042,0 l 0,0.0167 c 0,0.0985 -0.0151,0.1192 -0.0278,0.1192 -0.0184,0 -0.0294,-0.0447 -0.0294,-0.1196 z M 0.6879,0.722 c 0.0087,0 0.0126,-0.0155 0.0126,-0.0501 0,0 0,-0.0032 0,-0.0064 -0.0028,0 -0.0233,0 -0.0262,0 3e-4,0.0403 0.0042,0.0565 0.0136,0.0565"
                         id="path114"
                         style="fill:#009090;fill-opacity:1;fill-rule:nonzero;stroke:none" />
                      <path
                         d="m 0.7392,0.7477 c -2e-4,0.0033 -7e-4,0.0115 -7e-4,0.0115 l -0.0129,0 0,-0.2405 0.0145,0 c 0,0 0,0.1845 0,0.1948 8e-4,4e-4 0.0017,8e-4 0.0017,8e-4 0.004,0.0019 0.0082,0.0039 0.0134,0.0039 0.0079,0 0.0104,-0.0078 0.0104,-0.032 l 0,-0.1675 0.0146,0 0,0.1662 c 0,0.0457 -0.0089,0.0776 -0.0215,0.0776 -0.0089,0 -0.0145,-0.0067 -0.0195,-0.0148"
                         id="path116"
                         style="fill:#009090;fill-opacity:1;fill-rule:nonzero;stroke:none" />
                      <path
                         d="m 0.8319,0.7592 c 0,0 0,-0.1846 0,-0.1949 -8e-4,-4e-4 -0.0016,-8e-4 -0.0016,-8e-4 C 0.8262,0.5616 0.822,0.5596 0.8168,0.5596 c -0.0079,0 -0.0104,0.0078 -0.0104,0.032 l 0,0.1676 -0.0145,0 0,-0.1663 c 0,-0.0457 0.0088,-0.0776 0.0215,-0.0776 0.0088,0 0.0144,0.0067 0.0194,0.0149 2e-4,-0.0034 7e-4,-0.0115 7e-4,-0.0115 l 0.0129,0 0,0.2405"
                         id="path118"
                         style="fill:#009090;fill-opacity:1;fill-rule:nonzero;stroke:none" />
                      <path
                         d="m 0.8569,0.6429 c 0,-0.0835 0.0106,-0.1276 0.0308,-0.1276 0.0109,0 0.0175,0.0067 0.0212,0.0122 l 0.001,0.0016 0,0.0305 -0.0197,0 c -0.0109,0 -0.0177,0.0115 -0.0182,0.067 0.0032,0 0.042,0 0.042,0 l 0,0.0167 c 0,0.0985 -0.0151,0.1192 -0.0278,0.1192 -0.0183,0 -0.0293,-0.0447 -0.0293,-0.1196 z m 0.029,0.0791 c 0.0087,0 0.0126,-0.0155 0.0126,-0.0501 0,0 0,-0.0032 0,-0.0064 -0.0028,0 -0.0233,0 -0.0262,0 3e-4,0.0403 0.0042,0.0565 0.0136,0.0565"
                         id="path120"
                         style="fill:#009090;fill-opacity:1;fill-rule:nonzero;stroke:none" />
                      <path
                         d="m 0.3607,0.2736 c 0,-0.1442 0.0236,-0.1658 0.0377,-0.1658 0.0067,0 0.0147,0.0043 0.0215,0.0115 l 0.0012,0.0013 0,0.0348 -0.021,0 c -0.0161,0 -0.0234,0.0365 -0.0234,0.1182 0,0.0818 0.0066,0.1137 0.0234,0.1137 l 0.0197,0 0,0.0356 -0.0012,0.0014 C 0.4141,0.4291 0.407,0.4349 0.3985,0.4349 0.3871,0.4349 0.3607,0.4192 0.3607,0.2736"
                         id="path122"
                         style="fill:#009090;fill-opacity:1;fill-rule:nonzero;stroke:none" />
                      <path
                         d="m 0.4798,0.3594 -0.0131,0 c 0,0 0,-0.1899 0,-0.2002 -9e-4,-4e-4 -0.0018,-8e-4 -0.0018,-8e-4 C 0.4608,0.1564 0.4565,0.1543 0.4511,0.1543 c -0.0082,0 -0.0108,0.008 -0.0108,0.0331 l 0,0.172 -0.0148,0 0,-0.1707 c 0,-0.0469 0.0091,-0.0796 0.022,-0.0796 0.0092,0 0.0149,0.007 0.02,0.0153 3e-4,-0.0036 8e-4,-0.0119 8e-4,-0.0119 l 0.0132,0 0,0.2469"
                         id="path124"
                         style="fill:#009090;fill-opacity:1;fill-rule:nonzero;stroke:none" />
                      <path
                         d="M 0.4921,0.2923 C 0.4921,0.248 0.5027,0.2301 0.5112,0.2157 0.5174,0.2052 0.5227,0.1961 0.5227,0.1805 0.5227,0.1675 0.5215,0.1543 0.5124,0.1543 l -0.02,0 0,-0.0346 0.0012,-0.0013 C 0.4985,0.1132 0.5077,0.1091 0.5121,0.1091 c 0.0153,0 0.0249,0.0295 0.0249,0.077 0,0.0438 -0.0106,0.0617 -0.0192,0.076 -0.0062,0.0105 -0.0117,0.0196 -0.0117,0.035 0,0.0088 8e-4,0.0206 0.0077,0.0206 l 0.0187,0 0,0.0342 -0.0012,0.0015 C 0.528,0.3579 0.5207,0.3629 0.5155,0.3629 0.5011,0.3629 0.4921,0.3358 0.4921,0.2923"
                         id="path126"
                         style="fill:#009090;fill-opacity:1;fill-rule:nonzero;stroke:none" />
                      <path
                         d="m 0.563,0.4315 -0.0081,0 c 0,0 -0.0034,-0.0634 -0.0039,-0.0721 -0.0021,0 -0.0111,0 -0.0111,0 l 0,-0.0417 c 0,0 0.0076,0 0.01,0 0,-0.0114 0,-0.1445 0,-0.1445 0,-0.0421 0.0085,-0.0641 0.017,-0.0641 0.0049,0 0.0089,0.0026 0.0144,0.0094 l 0.0011,0.0014 0,0.0344 -0.0098,0 c -0.0058,0 -0.0079,0.0068 -0.0079,0.0262 0,0 0,0.1258 0,0.1372 0.0027,0 0.0165,0 0.0165,0 l 0,0.0417 c 0,0 -0.0138,0 -0.0165,0 0,0.0104 0,0.0721 0,0.0721"
                         id="path128"
                         style="fill:#009090;fill-opacity:1;fill-rule:nonzero;stroke:none" />
                      <path
                         d="m 0.5851,0.2362 c 0,-0.0831 0.011,-0.1271 0.0319,-0.1271 0.0207,0 0.0316,0.044 0.0316,0.1271 0,0.0829 -0.011,0.1267 -0.0319,0.1267 -0.0204,0 -0.0316,-0.045 -0.0316,-0.1267 z m 0.0157,0 c 0,0.0704 0.006,0.0845 0.0158,0.0845 0.0102,0 0.0161,-0.0138 0.0161,-0.0845 0,-0.0707 -0.0061,-0.0849 -0.0159,-0.0849 -0.0096,0 -0.016,0.0144 -0.016,0.0849"
                         id="path130"
                         style="fill:#009090;fill-opacity:1;fill-rule:nonzero;stroke:none" />
                      <path
                         d="M 0.7061,0.342 C 0.7021,0.356 0.6969,0.3629 0.6896,0.3629 0.6833,0.3629 0.6768,0.3566 0.6711,0.3456 0.6708,0.3501 0.6701,0.3594 0.6701,0.3594 l -0.0122,0 0,-0.2469 0.0149,0 c 0,0 0,0.1889 0,0.1985 0.005,0.0039 0.0109,0.0067 0.0146,0.0067 0.0052,0 0.0082,-0.0083 0.0082,-0.0232 l 0,-0.182 0.0148,0 0,0.1807 c 0,0.0067 -10e-5,0.0124 -2e-4,0.0175 0.0052,0.0041 0.0112,0.007 0.0149,0.007 0.0053,0 0.0082,-0.0083 0.0082,-0.0232 l 0,-0.182 0.0148,0 0,0.1772 c 0,0.0479 -0.0071,0.0732 -0.0205,0.0732 -0.009,0 -0.0156,-0.0101 -0.0215,-0.0209"
                         id="path132"
                         style="fill:#009090;fill-opacity:1;fill-rule:nonzero;stroke:none" />
                      <path
                         d="m 0.7571,0.2923 c 0,-0.0443 0.0105,-0.0622 0.019,-0.0766 0.0062,-0.0105 0.0116,-0.0196 0.0116,-0.0352 0,-0.013 -0.0012,-0.0262 -0.0103,-0.0262 l -0.0201,0 0,-0.0346 0.0013,-0.0013 C 0.7634,0.1132 0.7726,0.1091 0.777,0.1091 c 0.0154,0 0.0249,0.0295 0.0249,0.077 0,0.0438 -0.0106,0.0617 -0.0191,0.076 -0.0063,0.0105 -0.0117,0.0196 -0.0117,0.035 0,0.0088 8e-4,0.0206 0.0077,0.0206 l 0.0186,0 0,0.0342 -0.0011,0.0015 C 0.793,0.3579 0.7857,0.3629 0.7805,0.3629 0.766,0.3629 0.7571,0.3358 0.7571,0.2923"
                         id="path134"
                         style="fill:#009090;fill-opacity:1;fill-rule:nonzero;stroke:none" />
                    </g>
                  </g>
                </g>
              </g>
            </g>
          </g>
        </g>
      </g>
    </g>
  </g>
</svg>
