<?xml version="1.0" encoding="UTF-8" standalone="no"?>
<svg
   xmlns:dc="http://purl.org/dc/elements/1.1/"
   xmlns:cc="http://creativecommons.org/ns#"
   xmlns:rdf="http://www.w3.org/1999/02/22-rdf-syntax-ns#"
   xmlns:svg="http://www.w3.org/2000/svg"
   xmlns="http://www.w3.org/2000/svg"
   viewBox="0 0 2941.3333 682.66669"
   height="682.66669"
   width="2941.3333"
   xml:space="preserve"
   id="svg2"
   version="1.1"><metadata
     id="metadata8"><rdf:RDF><cc:Work
         rdf:about=""><dc:format>image/svg+xml</dc:format><dc:type
           rdf:resource="http://purl.org/dc/dcmitype/StillImage" /></cc:Work></rdf:RDF></metadata><defs
     id="defs6"><clipPath
       id="clipPath18"
       clipPathUnits="userSpaceOnUse"><path
         id="path16"
         d="M 0,512 H 2206 V 0 H 0 Z" /></clipPath><clipPath
       id="clipPath66"
       clipPathUnits="userSpaceOnUse"><path
         id="path64"
         d="M 129.954,468.719 C 83.92,465.846 42.062,427.009 38.796,383.874 v 0 C 32.893,298.623 32.893,213.372 38.797,128.12 v 0 C 42.063,84.986 83.92,46.155 129.954,43.28 v 0 c 98.034,-5.576 196.069,-5.576 294.103,10e-4 v 0 c 46.029,2.874 87.88,41.705 91.146,84.839 v 0 c 5.904,85.252 5.904,170.503 10e-4,255.754 v 0 c -3.266,43.135 -45.118,81.971 -91.147,84.845 v 0 c -49.023,2.789 -98.034,4.183 -147.057,4.183 v 0 c -49.012,0 -98.035,-1.395 -147.046,-4.183" /></clipPath><clipPath
       id="clipPath76"
       clipPathUnits="userSpaceOnUse"><path
         id="path74"
         d="M 23,508 H 161.191 V 21.5068 H 23 Z" /></clipPath><clipPath
       id="clipPath92"
       clipPathUnits="userSpaceOnUse"><path
         id="path90"
         d="M 23,508 H 355.828 V 256 H 23 Z" /></clipPath><clipPath
       id="clipPath108"
       clipPathUnits="userSpaceOnUse"><path
         id="path106"
         d="M 392.793,508 H 531 V 22 H 392.793 Z" /></clipPath><clipPath
       id="clipPath124"
       clipPathUnits="userSpaceOnUse"><path
         id="path122"
         d="M 313.478,300.417 H 531 V 22 H 313.478 Z" /></clipPath><clipPath
       id="clipPath140"
       clipPathUnits="userSpaceOnUse"><path
         id="path138"
         d="M 0,512 H 2206 V 0 H 0 Z" /></clipPath></defs><g
     transform="matrix(1.3333333,0,0,-1.3333333,0,682.66667)"
     id="g10"><g
       id="g12"><g
         clip-path="url(#clipPath18)"
         id="g14"><g
           transform="translate(617.1582,294.2285)"
           id="g20"><path
             id="path22"
             style="fill:#363737;fill-opacity:1;fill-rule:nonzero;stroke:none"
             d="m 0,0 v -104.32 c 0,-10.028 2.319,-17.787 6.96,-23.281 4.64,-5.494 11.6,-8.239 20.88,-8.239 6.825,0 13.224,1.52 19.2,4.56 5.973,3.04 11.625,7.225 16.96,12.56 V 0 h 39.52 V -164.16 H 79.359 c -5.12,0 -8.479,2.4 -10.08,7.2 l -2.719,13.12 c -3.415,-3.415 -6.935,-6.535 -10.56,-9.36 -3.628,-2.827 -7.495,-5.228 -11.601,-7.2 -4.107,-1.975 -8.535,-3.52 -13.279,-4.64 -4.748,-1.12 -9.841,-1.68 -15.28,-1.68 -8.96,0 -16.88,1.52 -23.76,4.56 -6.88,3.04 -12.668,7.332 -17.36,12.88 -4.696,5.545 -8.241,12.133 -10.64,19.759 -2.4,7.625 -3.601,16.026 -3.601,25.201 l 0,104.32 z" /></g><g
           transform="translate(762.917,130.0684)"
           id="g24"><path
             id="path26"
             style="fill:#363737;fill-opacity:1;fill-rule:nonzero;stroke:none"
             d="m 0,0 v 164.16 h 24.16 c 5.12,0 8.48,-2.4 10.08,-7.2 L 36.96,144 c 3.305,3.413 6.8,6.505 10.479,9.28 3.681,2.773 7.574,5.173 11.681,7.2 4.105,2.025 8.505,3.573 13.2,4.64 4.693,1.065 9.813,1.6 15.36,1.6 8.96,0 16.905,-1.52 23.84,-4.56 6.932,-3.04 12.72,-7.307 17.36,-12.8 4.64,-5.495 8.16,-12.055 10.559,-19.68 2.401,-7.627 3.601,-16.028 3.601,-25.2 V 0 h -39.52 v 104.48 c 0,10.025 -2.32,17.785 -6.96,23.28 -4.64,5.492 -11.6,8.24 -20.88,8.24 -6.827,0 -13.228,-1.547 -19.201,-4.64 -5.974,-3.095 -11.626,-7.307 -16.959,-12.64 L 39.52,0 Z" /></g><g
           transform="translate(1007.7158,159.0283)"
           id="g28"><path
             id="path30"
             style="fill:#363737;fill-opacity:1;fill-rule:nonzero;stroke:none"
             d="m 0,0 c 8.213,0 15.2,1.705 20.96,5.12 5.76,3.412 11.2,8.265 16.32,14.56 v 73.6 c -4.48,5.44 -9.36,9.28 -14.64,11.52 -5.28,2.24 -10.96,3.36 -17.04,3.36 -5.975,0 -11.387,-1.12 -16.24,-3.36 -4.855,-2.24 -8.96,-5.628 -12.32,-10.16 -3.36,-4.535 -5.947,-10.295 -7.76,-17.28 -1.815,-6.987 -2.72,-15.227 -2.72,-24.72 0,-9.6 0.772,-17.735 2.32,-24.4 1.545,-6.668 3.76,-12.107 6.64,-16.32 2.88,-4.215 6.4,-7.255 10.56,-9.12 C -9.76,0.933 -5.12,0 0,0 m 52.64,-28.96 c -5.12,0 -8.48,2.4 -10.08,7.2 l -3.2,15.84 c -3.415,-3.84 -6.988,-7.308 -10.72,-10.4 -3.735,-3.095 -7.76,-5.76 -12.08,-8 -4.32,-2.24 -8.96,-3.975 -13.92,-5.2 -4.96,-1.225 -10.32,-1.84 -16.08,-1.84 -8.96,0 -17.175,1.868 -24.64,5.6 -7.468,3.733 -13.895,9.145 -19.28,16.24 -5.387,7.092 -9.547,15.865 -12.48,26.32 -2.935,10.453 -4.4,22.4 -4.4,35.84 0,12.16 1.652,23.465 4.96,33.92 3.305,10.453 8.052,19.52 14.24,27.2 6.185,7.68 13.6,13.68 22.24,18 8.64,4.32 18.345,6.48 29.12,6.48 9.172,0 17.012,-1.468 23.52,-4.4 6.505,-2.935 12.32,-6.855 17.44,-11.76 V 208.8 H 76.8 V -28.96 Z" /></g><g
           transform="translate(1195.873,268.4683)"
           id="g32"><path
             id="path34"
             style="fill:#363737;fill-opacity:1;fill-rule:nonzero;stroke:none"
             d="m 0,0 c -11.52,0 -20.535,-3.255 -27.04,-9.76 -6.507,-6.508 -10.667,-15.735 -12.48,-27.68 h 74.241 c 0,5.12 -0.696,9.945 -2.08,14.48 -1.388,4.533 -3.521,8.505 -6.401,11.92 -2.88,3.413 -6.508,6.105 -10.88,8.08 C 10.985,-0.987 5.865,0 0,0 m -0.8,28.32 c 10.345,0 19.865,-1.655 28.56,-4.96 8.693,-3.307 16.185,-8.135 22.48,-14.48 6.293,-6.347 11.2,-14.135 14.72,-23.36 3.52,-9.228 5.28,-19.76 5.28,-31.6 0,-2.988 -0.135,-5.467 -0.4,-7.44 -0.268,-1.975 -0.747,-3.52 -1.44,-4.64 -0.695,-1.12 -1.628,-1.92 -2.799,-2.4 -1.176,-0.48 -2.668,-0.72 -4.481,-0.72 H -40.319 c 1.172,-16.855 5.704,-29.227 13.599,-37.12 7.893,-7.894 18.345,-11.84 31.361,-11.84 6.399,0 11.92,0.745 16.559,2.24 4.64,1.493 8.693,3.145 12.16,4.96 3.465,1.813 6.505,3.465 9.12,4.96 2.613,1.493 5.145,2.24 7.6,2.24 1.601,0 2.985,-0.32 4.16,-0.96 1.173,-0.64 2.185,-1.547 3.04,-2.72 l 11.52,-14.399 c -4.375,-5.121 -9.279,-9.415 -14.72,-12.881 -5.439,-3.467 -11.12,-6.24 -17.04,-8.32 -5.92,-2.08 -11.947,-3.545 -18.08,-4.4 -6.135,-0.853 -12.08,-1.28 -17.84,-1.28 -11.415,0 -22.027,1.895 -31.84,5.68 -9.815,3.786 -18.347,9.385 -25.599,16.8 -7.256,7.412 -12.96,16.585 -17.12,27.52 -4.161,10.932 -6.241,23.6 -6.241,38 0,11.2 1.813,21.733 5.44,31.6 3.625,9.865 8.825,18.452 15.6,25.76 6.773,7.305 15.04,13.093 24.8,17.36 9.76,4.265 20.773,6.4 33.04,6.4" /></g><g
           transform="translate(1298.2686,130.0684)"
           id="g36"><path
             id="path38"
             style="fill:#363737;fill-opacity:1;fill-rule:nonzero;stroke:none"
             d="m 0,0 v 164.16 h 23.2 c 4.052,0 6.88,-0.747 8.48,-2.24 1.6,-1.495 2.665,-4.055 3.2,-7.68 l 2.4,-19.84 c 5.865,10.133 12.744,18.133 20.64,24 7.893,5.865 16.745,8.8 26.559,8.8 8.106,0 14.826,-1.867 20.161,-5.6 L 99.52,132 c -0.32,-1.92 -1.015,-3.28 -2.081,-4.08 -1.067,-0.8 -2.506,-1.2 -4.319,-1.2 -1.6,0 -3.788,0.372 -6.56,1.12 -2.775,0.745 -6.456,1.12 -11.04,1.12 -8.215,0 -15.255,-2.268 -21.121,-6.8 C 48.532,117.625 43.572,110.985 39.52,102.24 V 0 Z" /></g><g
           transform="translate(1526.4258,262.2285)"
           id="g40"><path
             id="path42"
             style="fill:#363737;fill-opacity:1;fill-rule:nonzero;stroke:none"
             d="m 0,0 c -1.067,-1.708 -2.188,-2.908 -3.359,-3.6 -1.175,-0.695 -2.668,-1.04 -4.481,-1.04 -1.92,0 -3.974,0.533 -6.16,1.6 -2.188,1.065 -4.72,2.265 -7.6,3.6 -2.879,1.333 -6.16,2.532 -9.839,3.6 -3.68,1.065 -8.028,1.6 -13.04,1.6 -7.788,0 -13.92,-1.655 -18.401,-4.96 -4.479,-3.308 -6.72,-7.628 -6.72,-12.96 0,-3.52 1.146,-6.48 3.441,-8.88 2.292,-2.4 5.332,-4.508 9.119,-6.32 3.785,-1.815 8.08,-3.44 12.881,-4.88 4.8,-1.44 9.705,-3.015 14.72,-4.72 5.012,-1.708 9.919,-3.655 14.719,-5.84 4.8,-2.187 9.093,-4.96 12.88,-8.32 3.785,-3.36 6.825,-7.388 9.12,-12.08 2.293,-4.696 3.441,-10.348 3.441,-16.96 0,-7.895 -1.441,-15.175 -4.321,-21.84 -2.879,-6.668 -7.094,-12.428 -12.639,-17.28 -5.548,-4.855 -12.401,-8.64 -20.561,-11.361 -8.16,-2.719 -17.519,-4.079 -28.08,-4.079 -5.654,0 -11.175,0.507 -16.559,1.52 -5.388,1.014 -10.561,2.425 -15.521,4.24 -4.96,1.813 -9.547,3.944 -13.76,6.399 -4.215,2.454 -7.92,5.121 -11.12,8 l 9.12,15.04 c 1.173,1.813 2.561,3.201 4.16,4.161 1.6,0.96 3.625,1.44 6.081,1.44 2.452,0 4.772,-0.695 6.959,-2.08 2.185,-1.388 4.72,-2.88 7.6,-4.48 2.88,-1.6 6.266,-3.095 10.16,-4.48 3.893,-1.388 8.825,-2.08 14.8,-2.08 4.693,0 8.721,0.56 12.08,1.68 3.36,1.12 6.133,2.585 8.32,4.4 2.185,1.813 3.786,3.92 4.8,6.319 1.013,2.401 1.521,4.881 1.521,7.441 0,3.84 -1.148,6.985 -3.441,9.44 -2.295,2.452 -5.335,4.585 -9.12,6.4 -3.787,1.812 -8.107,3.44 -12.96,4.88 -4.854,1.44 -9.814,3.012 -14.88,4.72 -5.067,1.705 -10.027,3.705 -14.88,6 -4.855,2.292 -9.174,5.199 -12.959,8.72 -3.788,3.519 -6.828,7.84 -9.121,12.96 -2.295,5.12 -3.44,11.305 -3.44,18.56 0,6.72 1.333,13.12 4,19.2 2.665,6.08 6.586,11.385 11.761,15.92 5.172,4.532 11.625,8.16 19.359,10.88 7.732,2.72 16.665,4.08 26.801,4.08 11.305,0 21.599,-1.868 30.88,-5.6 C -4.96,25.225 2.772,20.32 8.96,14.24 Z" /></g><g
           transform="translate(1684.1855,259.5083)"
           id="g44"><path
             id="path46"
             style="fill:#363737;fill-opacity:1;fill-rule:nonzero;stroke:none"
             d="m 0,0 c -1.176,-1.495 -2.32,-2.667 -3.44,-3.52 -1.121,-0.855 -2.748,-1.28 -4.88,-1.28 -2.028,0 -4,0.612 -5.92,1.84 -1.92,1.225 -4.215,2.612 -6.88,4.16 -2.668,1.545 -5.841,2.932 -9.521,4.16 -3.679,1.225 -8.24,1.84 -13.679,1.84 -6.936,0 -13.016,-1.255 -18.241,-3.76 -5.227,-2.507 -9.575,-6.107 -13.04,-10.8 -3.467,-4.695 -6.054,-10.375 -7.759,-17.04 -1.708,-6.667 -2.561,-14.215 -2.561,-22.64 0,-8.748 0.933,-16.535 2.801,-23.36 1.864,-6.827 4.559,-12.559 8.08,-17.2 3.519,-4.64 7.784,-8.16 12.8,-10.56 5.012,-2.4 10.665,-3.6 16.96,-3.6 6.292,0 11.384,0.772 15.28,2.32 3.892,1.545 7.172,3.253 9.84,5.12 2.665,1.865 4.984,3.572 6.96,5.12 1.972,1.545 4.184,2.32 6.639,2.32 3.201,0 5.6,-1.228 7.201,-3.68 L 12,-104.959 c -4.375,-5.121 -9.12,-9.416 -14.24,-12.881 -5.12,-3.467 -10.428,-6.24 -15.92,-8.32 -5.495,-2.08 -11.176,-3.545 -17.04,-4.4 -5.868,-0.853 -11.681,-1.28 -17.441,-1.28 -10.134,0 -19.679,1.895 -28.639,5.68 -8.96,3.785 -16.776,9.305 -23.441,16.56 -6.667,7.253 -11.947,16.133 -15.84,26.641 -3.894,10.504 -5.839,22.479 -5.839,35.919 0,12.052 1.732,23.225 5.2,33.52 3.465,10.292 8.559,19.2 15.279,26.72 6.721,7.52 15.04,13.413 24.96,17.68 9.921,4.265 21.333,6.4 34.24,6.4 12.266,0 23.013,-1.975 32.241,-5.92 9.224,-3.947 17.519,-9.6 24.879,-16.96 z" /></g><g
           transform="translate(1791.542,158.0684)"
           id="g48"><path
             id="path50"
             style="fill:#363737;fill-opacity:1;fill-rule:nonzero;stroke:none"
             d="m 0,0 c 13.652,0 23.76,4.585 30.319,13.76 6.561,9.173 9.841,22.612 9.841,40.32 0,17.705 -3.28,31.2 -9.841,40.48 -6.559,9.28 -16.667,13.92 -30.319,13.92 -13.868,0 -24.107,-4.667 -30.72,-14 -6.615,-9.335 -9.921,-22.8 -9.921,-40.4 0,-17.6 3.306,-31.015 9.921,-40.24 C -24.107,4.612 -13.868,0 0,0 m 0,138.72 c 12.265,0 23.385,-1.975 33.359,-5.92 C 43.332,128.853 51.84,123.252 58.88,116 65.92,108.745 71.359,99.893 75.2,89.44 79.04,78.985 80.96,67.306 80.96,54.4 80.96,41.385 79.04,29.652 75.2,19.2 71.359,8.745 65.92,-0.16 58.88,-7.52 51.84,-14.88 43.332,-20.535 33.359,-24.48 23.385,-28.425 12.265,-30.4 0,-30.4 c -12.268,0 -23.415,1.975 -33.44,5.92 -10.028,3.945 -18.587,9.6 -25.68,16.96 -7.095,7.36 -12.588,16.265 -16.481,26.72 -3.894,10.452 -5.839,22.185 -5.839,35.2 0,12.906 1.945,24.585 5.839,35.04 3.893,10.453 9.386,19.305 16.481,26.56 7.093,7.252 15.652,12.853 25.68,16.8 10.025,3.945 21.172,5.92 33.44,5.92" /></g><g
           transform="translate(1903.3809,130.0684)"
           id="g52"><path
             id="path54"
             style="fill:#363737;fill-opacity:1;fill-rule:nonzero;stroke:none"
             d="m 0,0 v 164.16 h 23.2 c 4.052,0 6.88,-0.747 8.48,-2.24 1.6,-1.495 2.665,-4.055 3.2,-7.68 l 2.4,-19.84 c 5.865,10.133 12.744,18.133 20.64,24 7.893,5.865 16.745,8.8 26.559,8.8 8.106,0 14.826,-1.867 20.161,-5.6 L 99.52,132 c -0.32,-1.92 -1.015,-3.28 -2.081,-4.08 -1.067,-0.8 -2.506,-1.2 -4.319,-1.2 -1.6,0 -3.788,0.372 -6.56,1.12 -2.775,0.745 -6.456,1.12 -11.04,1.12 -8.215,0 -15.255,-2.268 -21.121,-6.8 C 48.532,117.625 43.572,110.985 39.52,102.24 V 0 Z" /></g><g
           transform="translate(2102.7383,268.4683)"
           id="g56"><path
             id="path58"
             style="fill:#363737;fill-opacity:1;fill-rule:nonzero;stroke:none"
             d="m 0,0 c -11.52,0 -20.535,-3.255 -27.04,-9.76 -6.507,-6.508 -10.667,-15.735 -12.48,-27.68 h 74.241 c 0,5.12 -0.696,9.945 -2.08,14.48 -1.388,4.533 -3.521,8.505 -6.401,11.92 -2.88,3.413 -6.508,6.105 -10.88,8.08 C 10.985,-0.987 5.865,0 0,0 m -0.8,28.32 c 10.345,0 19.865,-1.655 28.56,-4.96 8.693,-3.307 16.185,-8.135 22.48,-14.48 6.293,-6.347 11.2,-14.135 14.72,-23.36 3.52,-9.228 5.28,-19.76 5.28,-31.6 0,-2.988 -0.135,-5.467 -0.4,-7.44 -0.268,-1.975 -0.747,-3.52 -1.44,-4.64 -0.695,-1.12 -1.628,-1.92 -2.799,-2.4 -1.176,-0.48 -2.668,-0.72 -4.481,-0.72 H -40.319 c 1.172,-16.855 5.704,-29.227 13.599,-37.12 7.893,-7.894 18.345,-11.84 31.361,-11.84 6.399,0 11.92,0.745 16.559,2.24 4.64,1.493 8.693,3.145 12.16,4.96 3.465,1.813 6.505,3.465 9.12,4.96 2.613,1.493 5.145,2.24 7.6,2.24 1.601,0 2.985,-0.32 4.16,-0.96 1.173,-0.64 2.185,-1.547 3.04,-2.72 l 11.52,-14.399 c -4.375,-5.121 -9.279,-9.415 -14.72,-12.881 -5.439,-3.467 -11.12,-6.24 -17.04,-8.32 -5.92,-2.08 -11.947,-3.545 -18.08,-4.4 -6.135,-0.853 -12.08,-1.28 -17.84,-1.28 -11.415,0 -22.027,1.895 -31.84,5.68 -9.815,3.786 -18.347,9.385 -25.599,16.8 -7.256,7.412 -12.96,16.585 -17.12,27.52 -4.161,10.932 -6.241,23.6 -6.241,38 0,11.2 1.813,21.733 5.44,31.6 3.625,9.865 8.825,18.452 15.6,25.76 6.773,7.305 15.04,13.093 24.8,17.36 9.76,4.265 20.773,6.4 33.04,6.4" /></g></g></g><g
       id="g60"><g
         clip-path="url(#clipPath66)"
         id="g62"><path
           id="path68"
           style="fill:#3bade2;fill-opacity:1;fill-rule:nonzero;stroke:none"
           d="M 531,22 H 23 v 486 h 508 z" /><g
           id="g70"><g
             id="g72" /><g
             id="g84"><g
               style="opacity:0.60000598"
               id="g82"
               clip-path="url(#clipPath76)"><g
                 id="g80"
                 transform="translate(161.1909,508)"><path
                   id="path78"
                   style="fill:#3bade2;fill-opacity:1;fill-rule:nonzero;stroke:none"
                   d="m 0,0 -69.093,-486.493 -69.098,0.192 V 0 Z" /></g></g></g></g><g
           id="g86"><g
             id="g88" /><g
             id="g100"><g
               style="opacity:0.60000598"
               id="g98"
               clip-path="url(#clipPath92)"><g
                 id="g96"
                 transform="translate(23,256)"><path
                   id="path94"
                   style="fill:#3bade2;fill-opacity:1;fill-rule:nonzero;stroke:none"
                   d="M 0,0 V 252 H 332.828 Z" /></g></g></g></g><g
           id="g102"><g
             id="g104" /><g
             id="g116"><g
               style="opacity:0.60000598"
               id="g114"
               clip-path="url(#clipPath108)"><g
                 id="g112"
                 transform="translate(531,22)"><path
                   id="path110"
                   style="fill:#3bade2;fill-opacity:1;fill-rule:nonzero;stroke:none"
                   d="M 0,0 H -9.375 L -138.207,486 H 0 Z" /></g></g></g></g><g
           id="g118"><g
             id="g120" /><g
             id="g132"><g
               style="opacity:0.60000598"
               id="g130"
               clip-path="url(#clipPath124)"><g
                 id="g128"
                 transform="translate(531,300.4165)"><path
                   id="path126"
                   style="fill:#3bade2;fill-opacity:1;fill-rule:nonzero;stroke:none"
                   d="M 0,0 V -278.417 H -217.522 Z" /></g></g></g></g></g></g><g
       id="g134"><g
         clip-path="url(#clipPath140)"
         id="g136"><path
           id="path142"
           style="fill:#ffffff;fill-opacity:1;fill-rule:nonzero;stroke:none"
           d="M 139.518,174.078 H 300.43 V 143.543 H 139.518 Z" /><g
           transform="translate(391.167,188.1221)"
           id="g144"><path
             id="path146"
             style="fill:#ffffff;fill-opacity:1;fill-rule:nonzero;stroke:none"
             d="m 0,0 c 3.15,0 6.15,-0.567 8.99,-1.701 2.846,-1.139 5.332,-2.78 7.482,-4.926 4.418,-4.416 6.626,-9.909 6.626,-16.47 0,-6.439 -2.208,-11.868 -6.626,-16.285 -2.15,-2.144 -4.636,-3.812 -7.482,-5.015 -2.84,-1.199 -5.84,-1.797 -8.99,-1.797 -3.16,0 -6.123,0.598 -8.898,1.797 -2.781,1.203 -5.241,2.871 -7.385,5.015 -2.151,2.145 -3.819,4.611 -5.017,7.386 -1.203,2.776 -1.803,5.743 -1.803,8.899 0,3.155 0.6,6.154 1.803,8.995 1.198,2.839 2.866,5.331 5.017,7.475 C -11.866,-2.208 -6.438,0 0,0" /></g></g></g></g></svg>