<?xml version="1.0" encoding="UTF-8" standalone="no"?>
<svg
   xmlns:dc="http://purl.org/dc/elements/1.1/"
   xmlns:cc="http://creativecommons.org/ns#"
   xmlns:rdf="http://www.w3.org/1999/02/22-rdf-syntax-ns#"
   xmlns:svg="http://www.w3.org/2000/svg"
   xmlns="http://www.w3.org/2000/svg"
   viewBox="0 0 682.66669 682.66669"
   height="682.66669"
   width="682.66669"
   xml:space="preserve"
   id="svg2"
   version="1.1"><metadata
     id="metadata8"><rdf:RDF><cc:Work
         rdf:about=""><dc:format>image/svg+xml</dc:format><dc:type
           rdf:resource="http://purl.org/dc/dcmitype/StillImage" /></cc:Work></rdf:RDF></metadata><defs
     id="defs6"><clipPath
       id="clipPath18"
       clipPathUnits="userSpaceOnUse"><path
         id="path16"
         d="M 0,512 H 512 V 0 H 0 Z" /></clipPath><clipPath
       id="clipPath30"
       clipPathUnits="userSpaceOnUse"><path
         id="path28"
         d="M 108.954,468.719 C 62.919,465.846 21.063,427.009 17.797,383.874 v 0 c -5.904,-85.251 -5.904,-170.502 0,-255.754 v 0 C 21.063,84.986 62.919,46.155 108.954,43.28 v 0 c 98.034,-5.576 196.069,-5.576 294.103,10e-4 v 0 c 46.029,2.874 87.88,41.705 91.146,84.839 v 0 c 5.904,85.252 5.904,170.503 0.001,255.754 v 0 c -3.266,43.135 -45.118,81.971 -91.147,84.845 v 0 c -49.023,2.789 -98.034,4.183 -147.057,4.183 v 0 c -49.012,0 -98.035,-1.395 -147.046,-4.183" /></clipPath><clipPath
       id="clipPath40"
       clipPathUnits="userSpaceOnUse"><path
         id="path38"
         d="M 1.6084,508.396 H 140.191 V 21.6992 H 1.6084 Z" /></clipPath><clipPath
       id="clipPath56"
       clipPathUnits="userSpaceOnUse"><path
         id="path54"
         d="M 1.6084,508.396 H 334.828 V 256 H 1.6084 Z" /></clipPath><clipPath
       id="clipPath72"
       clipPathUnits="userSpaceOnUse"><path
         id="path70"
         d="M 371.793,508.396 H 510.392 V 21.6992 H 371.793 Z" /></clipPath><clipPath
       id="clipPath88"
       clipPathUnits="userSpaceOnUse"><path
         id="path86"
         d="M 292.478,300.417 H 510.392 V 21.6992 H 292.478 Z" /></clipPath><clipPath
       id="clipPath104"
       clipPathUnits="userSpaceOnUse"><path
         id="path102"
         d="M 0,512 H 512 V 0 H 0 Z" /></clipPath></defs><g
     transform="matrix(1.3333333,0,0,-1.3333333,0,682.66667)"
     id="g10"><g
       id="g12"><g
         clip-path="url(#clipPath18)"
         id="g14"><g
           transform="translate(494.2036,128.1201)"
           id="g20"><path
             id="path22"
             style="fill:#3bade2;fill-opacity:1;fill-rule:nonzero;stroke:none"
             d="m 0,0 c -3.266,-43.134 -45.117,-81.966 -91.146,-84.839 -98.035,-5.577 -196.069,-5.577 -294.104,-0.001 -46.034,2.874 -87.891,41.706 -91.157,84.84 -5.904,85.251 -5.904,170.503 0,255.754 3.266,43.134 45.123,81.972 91.157,84.845 98.035,5.577 196.069,5.577 294.104,0 C -45.118,337.726 -3.266,298.888 0,255.754 5.904,170.503 5.904,85.251 0,0" /></g></g></g><g
       id="g24"><g
         clip-path="url(#clipPath30)"
         id="g26"><path
           id="path32"
           style="fill:#3bade2;fill-opacity:1;fill-rule:nonzero;stroke:none"
           d="M 510.392,21.699 H 1.609 v 486.697 h 508.783 z" /><g
           id="g34"><g
             id="g36" /><g
             id="g48"><g
               style="opacity:0.60000598"
               id="g46"
               clip-path="url(#clipPath40)"><g
                 id="g44"
                 transform="translate(140.1909,508.396)"><path
                   id="path42"
                   style="fill:#3bade2;fill-opacity:1;fill-rule:nonzero;stroke:none"
                   d="m 0,0 -69.289,-486.691 -69.294,-0.006 V 0 Z" /></g></g></g></g><g
           id="g50"><g
             id="g52" /><g
             id="g64"><g
               style="opacity:0.60000598"
               id="g62"
               clip-path="url(#clipPath56)"><g
                 id="g60"
                 transform="translate(1.6084,256)"><path
                   id="path58"
                   style="fill:#3bade2;fill-opacity:1;fill-rule:nonzero;stroke:none"
                   d="M 0,0 V 252.396 H 333.22 Z" /></g></g></g></g><g
           id="g66"><g
             id="g68" /><g
             id="g80"><g
               style="opacity:0.60000598"
               id="g78"
               clip-path="url(#clipPath72)"><g
                 id="g76"
                 transform="translate(510.3916,21.6992)"><path
                   id="path74"
                   style="fill:#3bade2;fill-opacity:1;fill-rule:nonzero;stroke:none"
                   d="M 0,0 H -9.767 L -138.599,486.697 H 0 Z" /></g></g></g></g><g
           id="g82"><g
             id="g84" /><g
             id="g96"><g
               style="opacity:0.60000598"
               id="g94"
               clip-path="url(#clipPath88)"><g
                 id="g92"
                 transform="translate(510.3916,300.4165)"><path
                   id="path90"
                   style="fill:#3bade2;fill-opacity:1;fill-rule:nonzero;stroke:none"
                   d="M 0,0 V -278.717 H -217.914 Z" /></g></g></g></g></g></g><g
       id="g98"><g
         clip-path="url(#clipPath104)"
         id="g100"><path
           id="path106"
           style="fill:#ffffff;fill-opacity:1;fill-rule:nonzero;stroke:none"
           d="m 131.005,173.256 h 146.284 v -27.76 H 131.005 Z" /><g
           transform="translate(359.7788,188.3828)"
           id="g108"><path
             id="path110"
             style="fill:#ffffff;fill-opacity:1;fill-rule:nonzero;stroke:none"
             d="m 0,0 c 3.185,0 6.219,-0.574 9.091,-1.72 2.877,-1.152 5.391,-2.812 7.566,-4.981 4.467,-4.467 6.7,-10.022 6.7,-16.656 0,-6.512 -2.233,-12.002 -6.7,-16.469 -2.175,-2.168 -4.689,-3.856 -7.566,-5.072 -2.872,-1.211 -5.906,-1.817 -9.091,-1.817 -3.196,0 -6.192,0.606 -9,1.817 -2.812,1.216 -5.299,2.904 -7.468,5.072 -2.174,2.169 -3.861,4.663 -5.073,7.47 -1.216,2.806 -1.822,5.807 -1.822,8.999 0,3.19 0.606,6.223 1.822,9.096 1.212,2.871 2.899,5.391 5.073,7.56 C -12,-2.233 -6.511,0 0,0" /></g></g></g></g></svg>